<svg xmlns="http://www.w3.org/2000/svg" width="411.862" height="573.477" viewBox="0 0 411.862 573.477"><g transform="translate(-7.764 -1)"><g transform="translate(7.764 1)"><g transform="translate(0 217.367)"><g transform="translate(80.757 46.625)"><path d="M14.84,72.661,100.129,23.1l-.317,118.182L14.523,190.843Z" transform="translate(-14.523 -23.096)" fill="#3a53d0"/></g><g transform="translate(0.317)"><path d="M7.79,68.758,93.079,19.194l80.757,46.625L88.548,115.384Z" transform="translate(-7.79 -19.194)" fill="#7bb1ff"/></g><g transform="translate(0 49.564)"><path d="M88.838,69.968,88.521,188.15,7.764,141.524,8.08,23.342Z" transform="translate(-7.764 -23.342)" fill="#5793fb"/></g><g transform="translate(87.866 65.381)"><g transform="translate(37.945 13.075)"><path d="M43.452,25.76l.017,6.039L18.311,46.324l-.017-6.039Z" transform="translate(-18.294 -25.76)" fill="#fff"/></g><g transform="translate(0.094 2.766)"><g transform="translate(38.04 76.947)"><path d="M43.468,31.338l.017,6.039L18.327,51.9l-.017-6.039Z" transform="translate(-18.31 -31.338)" fill="#fff"/></g><g transform="translate(20.421 99.774)"><path d="M19.454,33.607c1.447-.835,2.632-.159,2.637,1.5a5.788,5.788,0,0,1-2.619,4.536c-1.447.835-2.632.16-2.637-1.5A5.788,5.788,0,0,1,19.454,33.607Z" transform="translate(-16.835 -33.249)" fill="#fff"/></g><g transform="translate(11.118 105.147)"><path d="M18.677,34.053c1.447-.835,2.6-.142,2.607,1.521a5.728,5.728,0,0,1-2.59,4.52c-1.447.835-2.632.16-2.637-1.5A5.792,5.792,0,0,1,18.677,34.053Z" transform="translate(-16.057 -33.698)" fill="#4c5671"/></g><g transform="translate(37.945 43.628)"><path d="M43.46,28.549l.017,6.041L18.319,49.114,18.3,43.075Z" transform="translate(-18.302 -28.549)" fill="#fff"/></g><g transform="translate(11.024 71.828)"><path d="M18.669,31.264c1.447-.835,2.6-.143,2.607,1.521a5.73,5.73,0,0,1-2.59,4.52c-1.447.835-2.632.16-2.637-1.5A5.79,5.79,0,0,1,18.669,31.264Z" transform="translate(-16.049 -30.91)" fill="#4c5671"/></g><g transform="translate(8.502 103.183)"><path d="M20.252,34.136c2.422-1.4,4.436-.284,4.443,2.533a9.768,9.768,0,0,1-4.415,7.648c-2.45,1.415-4.436.284-4.443-2.533a9.713,9.713,0,0,1,4.415-7.648Z" transform="translate(-15.838 -33.534)" fill="#4c5671"/></g><g transform="translate(0.094 63.88)"><path d="M80.834,30.971c2.953-1.7,5.352-.3,5.362,3.088l.043,15.37a11.736,11.736,0,0,1-5.327,9.227L20.539,93.394c-2.953,1.7-5.352.337-5.362-3.055l-.043-15.37a11.794,11.794,0,0,1,5.327-9.259Zm3.28,19.687-.043-15.37c-.006-2.036-1.458-2.863-3.229-1.84L20.468,68.185a7.09,7.09,0,0,0-3.208,5.557l.043,15.37c.006,2.036,1.458,2.863,3.229,1.84L80.906,56.215a7.09,7.09,0,0,0,3.208-5.557" transform="translate(-15.134 -30.244)" fill="#5793fb"/></g><g transform="translate(2.221 66.645)"><path d="M78.892,30.914c1.772-1.023,3.223-.2,3.229,1.84l.043,15.37a7.09,7.09,0,0,1-3.208,5.557L18.584,88.419c-1.772,1.023-3.223.2-3.229-1.84l-.043-15.37a7.09,7.09,0,0,1,3.208-5.557ZM76.3,46.818l-.017-6.039L51.13,55.3l.017,6.039ZM26.036,77.795a9.763,9.763,0,0,0,4.415-7.648c-.008-2.816-2.023-3.931-4.443-2.533a9.713,9.713,0,0,0-4.415,7.648c.008,2.817,1.993,3.947,4.443,2.533M36.147,70a5.786,5.786,0,0,0,2.619-4.536c0-1.662-1.19-2.339-2.637-1.5a5.8,5.8,0,0,0-2.62,4.538c.006,1.663,1.191,2.338,2.638,1.5m-9.3,5.369a5.726,5.726,0,0,0,2.59-4.52c0-1.662-1.16-2.356-2.607-1.521a5.8,5.8,0,0,0-2.62,4.538c0,1.664,1.19,2.339,2.637,1.5" transform="translate(-15.312 -30.476)" fill="#7bb1ff"/></g><g transform="translate(8.407 69.864)"><path d="M20.244,31.347c2.422-1.4,4.436-.284,4.443,2.533a9.766,9.766,0,0,1-4.415,7.645c-2.45,1.415-4.436.284-4.443-2.53a9.713,9.713,0,0,1,4.415-7.648Z" transform="translate(-15.83 -30.745)" fill="#4c5671"/></g><g transform="translate(0 30.554)"><path d="M80.826,28.188c2.953-1.7,5.352-.337,5.362,3.09l.043,15.37A11.736,11.736,0,0,1,80.9,55.875L20.531,90.612c-2.953,1.7-5.352.337-5.362-3.055l-.043-15.37a11.745,11.745,0,0,1,5.327-9.262Zm3.28,19.688-.043-15.37c-.006-2.036-1.458-2.863-3.229-1.84L20.461,65.4a7.09,7.09,0,0,0-3.208,5.557L17.3,86.33c.006,2.036,1.458,2.863,3.229,1.84L80.9,53.433a7.09,7.09,0,0,0,3.208-5.557" transform="translate(-15.126 -27.455)" fill="#5793fb"/></g><g transform="translate(20.326 66.454)"><path d="M19.446,30.818c1.447-.835,2.632-.16,2.637,1.5a5.788,5.788,0,0,1-2.619,4.536c-1.447.835-2.632.16-2.637-1.5a5.787,5.787,0,0,1,2.619-4.538Z" transform="translate(-16.827 -30.46)" fill="#fff"/></g><g transform="translate(20.232 33.137)"><path d="M19.438,28.029c1.447-.835,2.632-.16,2.637,1.5a5.787,5.787,0,0,1-2.619,4.538c-1.447.835-2.632.16-2.637-1.5A5.783,5.783,0,0,1,19.438,28.029Z" transform="translate(-16.819 -27.671)" fill="#fff"/></g><g transform="translate(10.93 38.51)"><path d="M18.661,28.476c1.447-.835,2.6-.143,2.607,1.519a5.727,5.727,0,0,1-2.59,4.521c-1.447.835-2.632.16-2.637-1.5A5.784,5.784,0,0,1,18.661,28.476Z" transform="translate(-16.041 -28.121)" fill="#4c5671"/></g><g transform="translate(2.127 33.326)"><path d="M78.885,28.126c1.772-1.023,3.223-.2,3.229,1.84l.043,15.37a7.09,7.09,0,0,1-3.208,5.557L18.576,85.63c-1.772,1.023-3.223.2-3.229-1.84L15.3,68.42a7.09,7.09,0,0,1,3.208-5.557ZM76.3,44.029l-.017-6.039L51.122,52.514l.017,6.039ZM26.028,75a9.763,9.763,0,0,0,4.415-7.645c-.008-2.816-2.023-3.931-4.443-2.533a9.713,9.713,0,0,0-4.415,7.648c.008,2.814,1.993,3.945,4.443,2.53m10.111-7.791a5.786,5.786,0,0,0,2.619-4.536c0-1.664-1.19-2.339-2.637-1.5a5.791,5.791,0,0,0-2.62,4.538c.006,1.662,1.191,2.337,2.638,1.5m-9.3,5.37a5.726,5.726,0,0,0,2.59-4.52c0-1.664-1.16-2.356-2.607-1.521a5.791,5.791,0,0,0-2.62,4.538c0,1.663,1.19,2.338,2.637,1.5" transform="translate(-15.304 -27.687)" fill="#7bb1ff"/></g><g transform="translate(8.313 36.545)"><path d="M20.236,28.559c2.422-1.4,4.436-.286,4.443,2.53a9.768,9.768,0,0,1-4.415,7.648c-2.45,1.415-4.436.284-4.443-2.533a9.71,9.71,0,0,1,4.415-7.645Z" transform="translate(-15.822 -27.956)" fill="#4c5671"/></g><g transform="translate(2.032)"><path d="M78.877,25.343c1.772-1.023,3.223-.231,3.229,1.805l.043,15.37a7.09,7.09,0,0,1-3.208,5.557L18.568,82.813c-1.772,1.023-3.223.2-3.229-1.84L15.3,65.6A7.025,7.025,0,0,1,18.5,60.082Zm-2.588,15.9-.017-6.039L51.114,49.732l.017,6.039ZM26.02,72.223a9.763,9.763,0,0,0,4.415-7.648c-.008-2.816-2.023-3.928-4.443-2.53a9.71,9.71,0,0,0-4.415,7.645c.008,2.816,1.993,3.947,4.443,2.533m10.111-7.791a5.787,5.787,0,0,0,2.619-4.538c0-1.662-1.19-2.337-2.637-1.5a5.791,5.791,0,0,0-2.62,4.536c.006,1.663,1.191,2.338,2.638,1.5m-9.3,5.37a5.727,5.727,0,0,0,2.59-4.521c0-1.662-1.16-2.354-2.607-1.519a5.791,5.791,0,0,0-2.62,4.536c0,1.663,1.19,2.338,2.637,1.5" transform="translate(-15.296 -24.897)" fill="#7bb1ff"/></g></g><path d="M80.818,25.4c2.953-1.7,5.352-.337,5.362,3.055l.043,15.37A11.745,11.745,0,0,1,80.9,53.087L20.523,87.824c-2.953,1.7-5.352.337-5.362-3.091l-.043-15.37a11.736,11.736,0,0,1,5.327-9.227ZM84.1,45.053l-.043-15.37c-.006-2.036-1.458-2.863-3.229-1.84L20.453,62.58a7.09,7.09,0,0,0-3.208,5.557l.043,15.37c.006,2.069,1.458,2.863,3.229,1.84L80.89,50.61A7.039,7.039,0,0,0,84.1,45.053" transform="translate(-15.118 -24.666)" fill="#5793fb"/></g><g transform="translate(5.79 135.996)"><g transform="translate(0.001)"><path d="M73.689,66.676a8.227,8.227,0,0,1,3.723,6.448l-.05,17.836c-.007,2.363-1.691,3.323-3.747,2.135L11.971,57.505a8.228,8.228,0,0,1-3.723-6.448L8.3,33.221c.007-2.362,1.691-3.323,3.747-2.135ZM20.626,55.17c2.845,1.642,5.147.33,5.157-2.9A11.267,11.267,0,0,0,20.659,43.4c-2.845-1.642-5.147-.33-5.157,2.939a11.267,11.267,0,0,0,5.123,8.835M58.119,74.408c1.679.969,3.054.225,3.06-1.7a6.717,6.717,0,0,0-3.039-5.264c-1.679-.969-3.054-.186-3.06,1.743a6.646,6.646,0,0,0,3.039,5.225M68.913,80.64c1.713.989,3.054.225,3.06-1.7a6.656,6.656,0,0,0-3.039-5.264c-1.679-.969-3.02-.166-3.025,1.762a6.575,6.575,0,0,0,3,5.205" transform="translate(-8.248 -30.576)" fill="#3a53d0"/></g><g transform="translate(0 0.02)"><path d="M75.746,90.946,14.1,55.357a8.228,8.228,0,0,1-3.723-6.448l.05-17.836a3.291,3.291,0,0,1,.1-.49C9.226,30.5,8.3,31.463,8.3,33.2l-.05,17.836a8.231,8.231,0,0,0,3.723,6.45L73.615,93.079c1.888,1.09,3.4.309,3.649-1.644A3.453,3.453,0,0,1,75.746,90.946Z" transform="translate(-8.248 -30.578)" fill="#7bb1ff"/></g><g transform="translate(7.256 12.111)"><path d="M14.012,32.3a11.273,11.273,0,0,1,5.123,8.875c-.01,3.229-2.312,4.542-5.157,2.9a11.262,11.262,0,0,1-5.123-8.835c.01-3.269,2.313-4.582,5.157-2.94Z" transform="translate(-8.856 -31.59)" fill="#b4bed7"/></g><g transform="translate(46.833 36.448)"><path d="M15.228,34.044a6.715,6.715,0,0,1,3.039,5.264c-.006,1.93-1.38,2.674-3.06,1.7a6.646,6.646,0,0,1-3.039-5.226C12.174,33.856,13.548,33.074,15.228,34.044Z" transform="translate(-12.168 -33.627)" fill="#4c5671"/></g><g transform="translate(57.66 42.684)"><path d="M16.1,34.562a6.654,6.654,0,0,1,3.039,5.264c-.006,1.93-1.346,2.693-3.06,1.7a6.58,6.58,0,0,1-3.006-5.206c.006-1.929,1.348-2.732,3.026-1.762Z" transform="translate(-13.074 -34.149)" fill="#fff"/></g></g><g transform="translate(5.79 100.605)"><g transform="translate(0.001)"><path d="M73.689,63.714a8.227,8.227,0,0,1,3.723,6.448L77.362,88c-.007,2.363-1.691,3.323-3.747,2.135L11.971,54.543A8.23,8.23,0,0,1,8.248,48.1L8.3,30.259c.007-2.362,1.691-3.323,3.747-2.135ZM20.626,52.207c2.845,1.642,5.147.33,5.157-2.9a11.267,11.267,0,0,0-5.123-8.873c-2.845-1.642-5.147-.33-5.157,2.939a11.267,11.267,0,0,0,5.123,8.835M58.119,71.446c1.679.969,3.054.225,3.06-1.7a6.717,6.717,0,0,0-3.039-5.264c-1.679-.969-3.054-.186-3.06,1.743a6.646,6.646,0,0,0,3.039,5.225m10.793,6.232c1.713.989,3.054.225,3.06-1.7a6.656,6.656,0,0,0-3.039-5.264c-1.679-.969-3.02-.166-3.025,1.762a6.575,6.575,0,0,0,3,5.206" transform="translate(-8.248 -27.614)" fill="#3a53d0"/></g><g transform="translate(0 0.02)"><path d="M75.746,87.984,14.1,52.395a8.228,8.228,0,0,1-3.723-6.448l.05-17.836a3.291,3.291,0,0,1,.1-.49c-1.3-.079-2.225.881-2.229,2.62l-.05,17.836a8.231,8.231,0,0,0,3.723,6.45L73.615,90.116c1.888,1.09,3.4.308,3.649-1.644A3.453,3.453,0,0,1,75.746,87.984Z" transform="translate(-8.248 -27.616)" fill="#7bb1ff"/></g><g transform="translate(7.256 12.111)"><path d="M14.012,29.335a11.273,11.273,0,0,1,5.123,8.875c-.01,3.229-2.312,4.542-5.157,2.9a11.259,11.259,0,0,1-5.123-8.835C8.865,29.006,11.169,27.693,14.012,29.335Z" transform="translate(-8.856 -28.628)" fill="#b4bed7"/></g><g transform="translate(46.833 36.448)"><path d="M15.228,31.081a6.715,6.715,0,0,1,3.039,5.264c-.006,1.929-1.38,2.674-3.06,1.7a6.646,6.646,0,0,1-3.039-5.226c.006-1.928,1.38-2.712,3.06-1.742Z" transform="translate(-12.168 -30.665)" fill="#4c5671"/></g><g transform="translate(57.66 42.684)"><path d="M16.1,31.6a6.654,6.654,0,0,1,3.039,5.264c-.006,1.93-1.346,2.693-3.06,1.7a6.58,6.58,0,0,1-3.006-5.205C13.08,31.432,14.422,30.629,16.1,31.6Z" transform="translate(-13.074 -31.187)" fill="#fff"/></g></g><g transform="translate(5.79 65.215)"><g transform="translate(0.001)"><path d="M73.689,60.752A8.227,8.227,0,0,1,77.412,67.2l-.05,17.836c-.007,2.363-1.691,3.323-3.747,2.135L11.971,51.581a8.228,8.228,0,0,1-3.723-6.448L8.3,27.3c.007-2.362,1.691-3.323,3.747-2.135ZM20.626,49.245c2.845,1.642,5.147.33,5.157-2.9a11.267,11.267,0,0,0-5.123-8.873c-2.845-1.642-5.147-.33-5.157,2.939a11.267,11.267,0,0,0,5.123,8.835M58.119,68.484c1.679.969,3.054.225,3.06-1.7a6.717,6.717,0,0,0-3.039-5.264c-1.679-.969-3.054-.186-3.06,1.743a6.646,6.646,0,0,0,3.039,5.225m10.793,6.232c1.713.989,3.054.225,3.06-1.7a6.656,6.656,0,0,0-3.039-5.264c-1.679-.969-3.02-.166-3.025,1.762a6.575,6.575,0,0,0,3,5.205" transform="translate(-8.248 -24.652)" fill="#3a53d0"/></g><g transform="translate(0 0.02)"><path d="M75.746,85.021,14.1,49.432a8.228,8.228,0,0,1-3.723-6.448l.05-17.836a3.291,3.291,0,0,1,.1-.49c-1.3-.079-2.225.881-2.229,2.62l-.05,17.836a8.231,8.231,0,0,0,3.723,6.45L73.615,87.154c1.888,1.09,3.4.309,3.649-1.644A3.47,3.47,0,0,1,75.746,85.021Z" transform="translate(-8.248 -24.654)" fill="#7bb1ff"/></g><g transform="translate(7.256 12.111)"><path d="M14.012,26.373a11.272,11.272,0,0,1,5.123,8.875c-.01,3.229-2.312,4.542-5.157,2.9a11.262,11.262,0,0,1-5.123-8.835C8.865,26.044,11.169,24.731,14.012,26.373Z" transform="translate(-8.856 -25.666)" fill="#b4bed7"/></g><g transform="translate(46.833 36.448)"><path d="M15.228,28.119a6.715,6.715,0,0,1,3.039,5.264c-.006,1.929-1.38,2.674-3.06,1.7a6.646,6.646,0,0,1-3.039-5.226c.006-1.93,1.38-2.712,3.06-1.742Z" transform="translate(-12.168 -27.703)" fill="#4c5671"/></g><g transform="translate(57.66 42.684)"><path d="M16.1,28.637A6.654,6.654,0,0,1,19.14,33.9c-.006,1.929-1.346,2.693-3.06,1.7A6.58,6.58,0,0,1,13.074,30.4C13.08,28.47,14.422,27.667,16.1,28.637Z" transform="translate(-13.074 -28.225)" fill="#fff"/></g></g><g transform="translate(122.749 70.869)"><g transform="translate(80.757 46.626)"><path d="M25.114,78.592,110.4,29.028l-.317,118.182L24.8,196.773Z" transform="translate(-24.797 -29.028)" fill="#3a53d0"/></g><g transform="translate(0.317)"><path d="M18.064,74.69l85.289-49.565,80.758,46.626L98.822,121.315Z" transform="translate(-18.064 -25.125)" fill="#7bb1ff"/></g><g transform="translate(0 49.565)"><path d="M99.112,75.9,98.8,194.08,18.038,147.456l.317-118.182Z" transform="translate(-18.038 -29.274)" fill="#5793fb"/></g><g transform="translate(87.866 65.382)"><g transform="translate(37.945 13.074)"><path d="M53.726,31.692l.017,6.039L28.585,52.257l-.017-6.039Z" transform="translate(-28.568 -31.692)" fill="#fff"/></g><g transform="translate(0.094 2.766)"><g transform="translate(38.039 76.947)"><path d="M53.742,37.27l.018,6.039L28.6,57.834l-.017-6.039Z" transform="translate(-28.584 -37.27)" fill="#fff"/></g><g transform="translate(20.421 99.774)"><path d="M29.728,39.538c1.447-.835,2.632-.159,2.637,1.5a5.788,5.788,0,0,1-2.619,4.536c-1.447.835-2.632.16-2.637-1.5A5.787,5.787,0,0,1,29.728,39.538Z" transform="translate(-27.109 -39.18)" fill="#fff"/></g><g transform="translate(11.118 105.147)"><path d="M28.951,39.985c1.447-.835,2.6-.142,2.607,1.521a5.73,5.73,0,0,1-2.59,4.52c-1.447.835-2.632.16-2.637-1.5A5.792,5.792,0,0,1,28.951,39.985Z" transform="translate(-26.331 -39.63)" fill="#4c5671"/></g><g transform="translate(37.945 43.628)"><path d="M53.734,34.481l.017,6.039L28.593,55.046l-.017-6.041Z" transform="translate(-28.576 -34.481)" fill="#fff"/></g><g transform="translate(11.024 71.828)"><path d="M28.943,37.2c1.447-.835,2.6-.143,2.607,1.521a5.73,5.73,0,0,1-2.59,4.52c-1.447.835-2.632.16-2.637-1.5A5.788,5.788,0,0,1,28.943,37.2Z" transform="translate(-26.323 -36.841)" fill="#4c5671"/></g><g transform="translate(8.502 103.182)"><path d="M30.526,40.068c2.422-1.4,4.436-.284,4.443,2.533a9.77,9.77,0,0,1-4.415,7.648c-2.45,1.415-4.436.284-4.443-2.533A9.713,9.713,0,0,1,30.526,40.068Z" transform="translate(-26.112 -39.466)" fill="#4c5671"/></g><g transform="translate(0.094 63.88)"><path d="M91.108,36.9c2.953-1.7,5.352-.3,5.362,3.088l.043,15.37a11.736,11.736,0,0,1-5.327,9.227L30.813,99.326c-2.953,1.7-5.352.337-5.362-3.055L25.408,80.9a11.792,11.792,0,0,1,5.327-9.259Zm3.28,19.687-.043-15.37c-.006-2.036-1.458-2.863-3.229-1.84L30.742,74.117a7.09,7.09,0,0,0-3.208,5.557l.043,15.37c.006,2.036,1.458,2.863,3.229,1.84L91.18,62.147a7.092,7.092,0,0,0,3.208-5.557" transform="translate(-25.408 -36.176)" fill="#5793fb"/></g><g transform="translate(2.221 66.644)"><path d="M89.167,36.846c1.772-1.023,3.223-.2,3.229,1.84l.043,15.37a7.09,7.09,0,0,1-3.208,5.557L28.858,94.35c-1.772,1.023-3.223.2-3.229-1.84l-.043-15.37a7.09,7.09,0,0,1,3.208-5.557Zm-2.588,15.9-.017-6.039L61.4,61.234l.017,6.039ZM36.31,83.728a9.763,9.763,0,0,0,4.415-7.648c-.008-2.816-2.023-3.931-4.443-2.533a9.713,9.713,0,0,0-4.415,7.648c.008,2.816,1.993,3.947,4.443,2.533m10.111-7.793A5.786,5.786,0,0,0,49.04,71.4c0-1.662-1.19-2.339-2.637-1.5a5.8,5.8,0,0,0-2.62,4.538c.006,1.664,1.191,2.338,2.638,1.5m-9.3,5.37a5.726,5.726,0,0,0,2.59-4.52c0-1.662-1.16-2.356-2.607-1.521a5.8,5.8,0,0,0-2.62,4.538c0,1.663,1.19,2.338,2.637,1.5" transform="translate(-25.586 -36.407)" fill="#7bb1ff"/></g><g transform="translate(8.407 69.863)"><path d="M30.518,37.279c2.422-1.4,4.436-.284,4.443,2.533a9.766,9.766,0,0,1-4.415,7.645c-2.45,1.415-4.436.284-4.443-2.53a9.716,9.716,0,0,1,4.415-7.648Z" transform="translate(-26.104 -36.677)" fill="#4c5671"/></g><g transform="translate(0 30.554)"><path d="M91.1,34.119c2.953-1.7,5.352-.337,5.362,3.09l.043,15.37a11.736,11.736,0,0,1-5.327,9.227L30.805,96.544c-2.953,1.7-5.352.337-5.362-3.055L25.4,78.118a11.745,11.745,0,0,1,5.327-9.262Zm3.28,19.688-.043-15.372c-.006-2.036-1.458-2.863-3.229-1.84L30.735,71.333a7.09,7.09,0,0,0-3.208,5.557l.043,15.37c.006,2.036,1.458,2.863,3.229,1.84L91.172,59.363a7.088,7.088,0,0,0,3.208-5.556" transform="translate(-25.4 -33.387)" fill="#5793fb"/></g><g transform="translate(20.326 66.455)"><path d="M29.72,36.75c1.447-.835,2.632-.16,2.637,1.5a5.788,5.788,0,0,1-2.619,4.536c-1.447.835-2.632.16-2.637-1.5A5.786,5.786,0,0,1,29.72,36.75Z" transform="translate(-27.101 -36.392)" fill="#fff"/></g><g transform="translate(20.232 33.135)"><path d="M29.712,33.961c1.447-.835,2.632-.16,2.637,1.5A5.787,5.787,0,0,1,29.73,40c-1.447.835-2.632.16-2.637-1.5a5.787,5.787,0,0,1,2.619-4.536Z" transform="translate(-27.093 -33.603)" fill="#fff"/></g><g transform="translate(10.93 38.509)"><path d="M28.935,34.407c1.447-.835,2.6-.143,2.607,1.519a5.726,5.726,0,0,1-2.59,4.521c-1.447.835-2.632.16-2.637-1.5A5.789,5.789,0,0,1,28.935,34.407Z" transform="translate(-26.315 -34.052)" fill="#4c5671"/></g><g transform="translate(2.127 33.325)"><path d="M89.159,34.057c1.772-1.023,3.223-.2,3.229,1.84l.043,15.37a7.09,7.09,0,0,1-3.208,5.557L28.85,91.562c-1.772,1.023-3.223.2-3.229-1.84l-.043-15.37a7.09,7.09,0,0,1,3.208-5.557Zm-2.588,15.9-.017-6.039L61.4,58.446l.017,6.039ZM36.3,80.937a9.763,9.763,0,0,0,4.415-7.645c-.008-2.816-2.023-3.931-4.443-2.533a9.713,9.713,0,0,0-4.415,7.648c.008,2.815,1.993,3.946,4.443,2.53m10.111-7.791a5.786,5.786,0,0,0,2.619-4.536c0-1.664-1.19-2.339-2.637-1.5a5.791,5.791,0,0,0-2.62,4.538c.006,1.663,1.191,2.338,2.638,1.5m-9.3,5.37A5.726,5.726,0,0,0,39.7,74c0-1.664-1.16-2.356-2.607-1.521a5.791,5.791,0,0,0-2.62,4.538c0,1.664,1.19,2.338,2.637,1.5" transform="translate(-25.578 -33.619)" fill="#7bb1ff"/></g><g transform="translate(8.313 36.545)"><path d="M30.51,34.491c2.422-1.4,4.436-.286,4.443,2.53a9.768,9.768,0,0,1-4.415,7.648c-2.45,1.415-4.436.284-4.443-2.533a9.708,9.708,0,0,1,4.415-7.645Z" transform="translate(-26.096 -33.888)" fill="#4c5671"/></g><g transform="translate(2.031)"><path d="M89.152,31.275c1.772-1.023,3.223-.231,3.229,1.805l.043,15.37a7.09,7.09,0,0,1-3.208,5.557L28.844,88.745c-1.772,1.023-3.223.2-3.229-1.84L25.57,71.533a7.026,7.026,0,0,1,3.208-5.521Zm-2.588,15.9-.017-6.039L61.39,55.664l.017,6.039ZM36.3,78.155a9.763,9.763,0,0,0,4.415-7.648c-.008-2.816-2.023-3.928-4.443-2.53a9.71,9.71,0,0,0-4.415,7.645c.008,2.816,1.993,3.947,4.443,2.533m10.111-7.791a5.787,5.787,0,0,0,2.619-4.538c0-1.662-1.19-2.337-2.637-1.5a5.791,5.791,0,0,0-2.62,4.536c.006,1.663,1.191,2.338,2.638,1.5m-9.3,5.369a5.727,5.727,0,0,0,2.59-4.521c0-1.662-1.16-2.354-2.607-1.519a5.791,5.791,0,0,0-2.62,4.536c0,1.664,1.19,2.339,2.637,1.5" transform="translate(-25.57 -30.829)" fill="#7bb1ff"/></g></g><path d="M91.092,31.331c2.953-1.7,5.352-.337,5.362,3.055l.043,15.37a11.745,11.745,0,0,1-5.327,9.262L30.8,93.756c-2.953,1.7-5.352.337-5.362-3.091l-.043-15.37a11.736,11.736,0,0,1,5.327-9.227Zm3.28,19.653-.043-15.37c-.006-2.036-1.458-2.863-3.229-1.84L30.727,68.512a7.09,7.09,0,0,0-3.208,5.557l.043,15.37c.006,2.069,1.458,2.863,3.229,1.84L91.164,56.542a7.041,7.041,0,0,0,3.208-5.557" transform="translate(-25.392 -30.598)" fill="#5793fb"/></g><g transform="translate(5.79 135.997)"><g transform="translate(0.001)"><path d="M83.963,72.608a8.227,8.227,0,0,1,3.723,6.448l-.05,17.836c-.007,2.363-1.691,3.323-3.747,2.135L22.245,63.437a8.228,8.228,0,0,1-3.723-6.448l.05-17.836c.007-2.362,1.691-3.323,3.747-2.135ZM30.9,61.1c2.845,1.642,5.147.33,5.157-2.9a11.267,11.267,0,0,0-5.123-8.873c-2.845-1.642-5.147-.33-5.157,2.939A11.265,11.265,0,0,0,30.9,61.1M68.393,80.34c1.679.969,3.054.225,3.06-1.7a6.717,6.717,0,0,0-3.039-5.264c-1.679-.969-3.054-.186-3.06,1.743a6.648,6.648,0,0,0,3.039,5.225m10.793,6.232c1.713.989,3.054.225,3.06-1.7A6.656,6.656,0,0,0,79.207,79.6c-1.679-.969-3.02-.166-3.025,1.762a6.577,6.577,0,0,0,3,5.205" transform="translate(-18.522 -36.508)" fill="#3a53d0"/></g><g transform="translate(0 0.02)"><path d="M86.021,96.878,24.377,61.289a8.225,8.225,0,0,1-3.723-6.448L20.7,37a3.289,3.289,0,0,1,.1-.49c-1.3-.079-2.225.881-2.229,2.62l-.05,17.836a8.231,8.231,0,0,0,3.723,6.45L83.889,99.01c1.888,1.09,3.4.309,3.649-1.644A3.469,3.469,0,0,1,86.021,96.878Z" transform="translate(-18.522 -36.51)" fill="#7bb1ff"/></g><g transform="translate(7.256 12.11)"><path d="M24.286,38.229A11.273,11.273,0,0,1,29.409,47.1c-.01,3.229-2.312,4.542-5.157,2.9A11.259,11.259,0,0,1,19.13,41.17c.01-3.27,2.313-4.582,5.157-2.94Z" transform="translate(-19.13 -37.522)" fill="#b4bed7"/></g><g transform="translate(46.833 36.447)"><path d="M25.5,39.975a6.715,6.715,0,0,1,3.039,5.264c-.006,1.93-1.38,2.674-3.06,1.7a6.646,6.646,0,0,1-3.039-5.226C22.448,39.787,23.822,39.006,25.5,39.975Z" transform="translate(-22.442 -39.559)" fill="#4c5671"/></g><g transform="translate(57.66 42.683)"><path d="M26.375,40.493a6.654,6.654,0,0,1,3.039,5.264c-.006,1.93-1.346,2.693-3.06,1.7a6.58,6.58,0,0,1-3.006-5.205c0-1.928,1.348-2.731,3.026-1.762Z" transform="translate(-23.348 -40.081)" fill="#fff"/></g></g><g transform="translate(5.79 100.606)"><g transform="translate(0.001)"><path d="M83.963,69.646a8.227,8.227,0,0,1,3.723,6.448l-.05,17.836c-.007,2.363-1.691,3.323-3.747,2.135L22.245,60.475a8.23,8.23,0,0,1-3.723-6.448l.05-17.836c.007-2.362,1.691-3.323,3.747-2.135ZM30.9,58.138c2.845,1.642,5.147.33,5.157-2.9a11.267,11.267,0,0,0-5.123-8.873c-2.845-1.642-5.147-.33-5.157,2.939A11.265,11.265,0,0,0,30.9,58.138m37.493,19.24c1.679.969,3.054.225,3.06-1.7a6.717,6.717,0,0,0-3.039-5.264c-1.679-.969-3.054-.186-3.06,1.743a6.648,6.648,0,0,0,3.039,5.225M79.187,83.61c1.713.989,3.054.225,3.06-1.7a6.656,6.656,0,0,0-3.039-5.264c-1.679-.969-3.02-.166-3.025,1.762a6.577,6.577,0,0,0,3,5.205" transform="translate(-18.522 -33.546)" fill="#3a53d0"/></g><g transform="translate(0 0.02)"><path d="M86.021,93.915,24.377,58.326a8.225,8.225,0,0,1-3.723-6.448l.05-17.836a3.289,3.289,0,0,1,.1-.49c-1.3-.079-2.225.881-2.229,2.62l-.05,17.836a8.231,8.231,0,0,0,3.723,6.45L83.889,96.048c1.888,1.09,3.4.308,3.649-1.644A3.469,3.469,0,0,1,86.021,93.915Z" transform="translate(-18.522 -33.548)" fill="#7bb1ff"/></g><g transform="translate(7.256 12.11)"><path d="M24.286,35.268a11.272,11.272,0,0,1,5.123,8.873c-.01,3.229-2.312,4.542-5.157,2.9a11.262,11.262,0,0,1-5.123-8.835c.01-3.269,2.313-4.582,5.157-2.939Z" transform="translate(-19.13 -34.56)" fill="#b4bed7"/></g><g transform="translate(46.833 36.447)"><path d="M25.5,37.013a6.715,6.715,0,0,1,3.039,5.264c-.006,1.93-1.38,2.674-3.06,1.7a6.646,6.646,0,0,1-3.039-5.226C22.448,36.825,23.822,36.044,25.5,37.013Z" transform="translate(-22.442 -36.597)" fill="#4c5671"/></g><g transform="translate(57.66 42.683)"><path d="M26.375,37.53a6.654,6.654,0,0,1,3.039,5.264c-.006,1.93-1.346,2.693-3.06,1.7a6.58,6.58,0,0,1-3.006-5.205c.007-1.928,1.348-2.731,3.026-1.762Z" transform="translate(-23.348 -37.119)" fill="#fff"/></g></g><g transform="translate(5.79 65.216)"><g transform="translate(0.001)"><path d="M83.963,66.684a8.227,8.227,0,0,1,3.723,6.448l-.05,17.836c-.007,2.363-1.691,3.323-3.747,2.135L22.245,57.513a8.228,8.228,0,0,1-3.723-6.448l.05-17.836c.007-2.362,1.691-3.323,3.747-2.135ZM30.9,55.176c2.845,1.642,5.147.33,5.157-2.9A11.267,11.267,0,0,0,30.933,43.4c-2.845-1.642-5.147-.33-5.157,2.939A11.265,11.265,0,0,0,30.9,55.176m37.493,19.24c1.679.969,3.054.225,3.06-1.7a6.717,6.717,0,0,0-3.039-5.264c-1.679-.969-3.054-.186-3.06,1.743a6.649,6.649,0,0,0,3.039,5.225m10.793,6.232c1.713.989,3.054.225,3.06-1.7a6.656,6.656,0,0,0-3.039-5.264c-1.679-.969-3.02-.166-3.025,1.762a6.577,6.577,0,0,0,3,5.205" transform="translate(-18.522 -30.584)" fill="#3a53d0"/></g><g transform="translate(0 0.02)"><path d="M86.021,90.953,24.377,55.364a8.225,8.225,0,0,1-3.723-6.448L20.7,31.08a3.288,3.288,0,0,1,.1-.49c-1.3-.079-2.225.881-2.229,2.62l-.05,17.836a8.231,8.231,0,0,0,3.723,6.45L83.889,93.086c1.888,1.09,3.4.308,3.649-1.644A3.469,3.469,0,0,1,86.021,90.953Z" transform="translate(-18.522 -30.586)" fill="#7bb1ff"/></g><g transform="translate(7.256 12.11)"><path d="M24.286,32.305a11.272,11.272,0,0,1,5.123,8.875c-.01,3.229-2.312,4.542-5.157,2.9a11.262,11.262,0,0,1-5.123-8.835c.01-3.27,2.313-4.583,5.157-2.94Z" transform="translate(-19.13 -31.597)" fill="#b4bed7"/></g><g transform="translate(46.833 36.447)"><path d="M25.5,34.051a6.715,6.715,0,0,1,3.039,5.264c-.006,1.93-1.38,2.674-3.06,1.7a6.646,6.646,0,0,1-3.039-5.226C22.448,33.863,23.822,33.082,25.5,34.051Z" transform="translate(-22.442 -33.635)" fill="#4c5671"/></g><g transform="translate(57.66 42.683)"><path d="M26.375,34.568a6.654,6.654,0,0,1,3.039,5.264c-.006,1.93-1.346,2.693-3.06,1.7a6.58,6.58,0,0,1-3.006-5.205c0-1.928,1.348-2.731,3.026-1.762Z" transform="translate(-23.348 -34.156)" fill="#fff"/></g></g></g><g transform="translate(245.498 141.738)"><g transform="translate(80.757 46.625)"><path d="M35.388,84.525,120.677,34.96l-.317,118.182L35.071,202.706Z" transform="translate(-35.071 -34.96)" fill="#3a53d0"/></g><g transform="translate(0.317)"><path d="M28.338,80.621l85.289-49.564,80.757,46.625L109.1,127.247Z" transform="translate(-28.338 -31.057)" fill="#7bb1ff"/></g><g transform="translate(0 49.564)"><path d="M109.386,81.832l-.317,118.182L28.312,153.387l.317-118.182Z" transform="translate(-28.312 -35.206)" fill="#5793fb"/></g><g transform="translate(87.866 65.381)"><g transform="translate(37.945 13.075)"><path d="M64,37.624l.017,6.039L38.859,58.188l-.017-6.039Z" transform="translate(-38.842 -37.624)" fill="#fff"/></g><g transform="translate(0.094 2.766)"><g transform="translate(38.039 76.947)"><path d="M64.016,43.2l.018,6.041L38.875,63.767l-.017-6.039Z" transform="translate(-38.858 -43.201)" fill="#fff"/></g><g transform="translate(20.421 99.774)"><path d="M40,45.47c1.447-.835,2.632-.159,2.637,1.5a5.788,5.788,0,0,1-2.619,4.536c-1.447.835-2.632.16-2.637-1.5A5.793,5.793,0,0,1,40,45.47Z" transform="translate(-37.383 -45.112)" fill="#fff"/></g><g transform="translate(11.118 105.147)"><path d="M39.225,45.916c1.447-.835,2.6-.142,2.607,1.521a5.73,5.73,0,0,1-2.59,4.52c-1.447.835-2.632.16-2.637-1.5a5.792,5.792,0,0,1,2.62-4.539Z" transform="translate(-36.605 -45.562)" fill="#4c5671"/></g><g transform="translate(37.945 43.629)"><path d="M64.008,40.413l.018,6.039L38.867,60.977l-.017-6.039Z" transform="translate(-38.85 -40.413)" fill="#fff"/></g><g transform="translate(11.024 71.828)"><path d="M39.217,43.128c1.447-.835,2.6-.143,2.607,1.521a5.73,5.73,0,0,1-2.59,4.52c-1.447.835-2.632.16-2.637-1.5A5.792,5.792,0,0,1,39.217,43.128Z" transform="translate(-36.597 -42.773)" fill="#4c5671"/></g><g transform="translate(8.502 103.183)"><path d="M40.8,46c2.422-1.4,4.436-.284,4.443,2.533a9.77,9.77,0,0,1-4.415,7.648c-2.45,1.415-4.436.284-4.443-2.533A9.716,9.716,0,0,1,40.8,46Z" transform="translate(-36.386 -45.397)" fill="#4c5671"/></g><g transform="translate(0.094 63.88)"><path d="M101.382,42.835c2.953-1.7,5.352-.3,5.362,3.088l.043,15.37a11.736,11.736,0,0,1-5.327,9.227L41.087,105.258c-2.953,1.7-5.352.337-5.362-3.055l-.043-15.37a11.792,11.792,0,0,1,5.327-9.259Zm3.28,19.687-.043-15.37c-.006-2.036-1.458-2.863-3.229-1.84L41.017,80.049a7.09,7.09,0,0,0-3.208,5.557l.043,15.37c.006,2.036,1.458,2.863,3.229,1.84l60.373-34.737a7.09,7.09,0,0,0,3.208-5.557" transform="translate(-35.682 -42.108)" fill="#5793fb"/></g><g transform="translate(2.221 66.645)"><path d="M99.441,42.778c1.772-1.023,3.223-.2,3.229,1.84l.043,15.37a7.09,7.09,0,0,1-3.208,5.557L39.132,100.282c-1.772,1.023-3.223.2-3.229-1.84l-.043-15.37a7.09,7.09,0,0,1,3.208-5.557Zm-2.587,15.9-.017-6.039L71.68,67.166l.017,6.039ZM46.584,89.659A9.763,9.763,0,0,0,51,82.011c-.008-2.816-2.023-3.931-4.443-2.533a9.713,9.713,0,0,0-4.415,7.648c.008,2.817,1.993,3.947,4.443,2.533M56.7,81.866a5.786,5.786,0,0,0,2.619-4.536c0-1.662-1.19-2.339-2.637-1.5a5.79,5.79,0,0,0-2.619,4.538c0,1.663,1.19,2.338,2.637,1.5m-9.3,5.37a5.726,5.726,0,0,0,2.59-4.52c0-1.662-1.16-2.356-2.607-1.521a5.79,5.79,0,0,0-2.619,4.538c0,1.663,1.189,2.338,2.636,1.5" transform="translate(-35.86 -42.339)" fill="#7bb1ff"/></g><g transform="translate(8.407 69.864)"><path d="M40.792,43.211c2.422-1.4,4.436-.284,4.443,2.533a9.766,9.766,0,0,1-4.415,7.645c-2.45,1.415-4.436.284-4.443-2.53a9.712,9.712,0,0,1,4.415-7.648Z" transform="translate(-36.378 -42.609)" fill="#4c5671"/></g><g transform="translate(0 30.554)"><path d="M101.374,40.051c2.953-1.7,5.353-.337,5.362,3.09l.043,15.37a11.736,11.736,0,0,1-5.327,9.227L41.079,102.475c-2.953,1.7-5.352.337-5.362-3.055l-.043-15.37A11.745,11.745,0,0,1,41,74.788Zm3.28,19.688-.043-15.37c-.006-2.036-1.458-2.863-3.229-1.84L41.009,77.266A7.09,7.09,0,0,0,37.8,82.823l.044,15.37c.006,2.036,1.458,2.863,3.229,1.84L101.447,65.3a7.092,7.092,0,0,0,3.207-5.557" transform="translate(-35.674 -39.318)" fill="#5793fb"/></g><g transform="translate(20.326 66.456)"><path d="M39.994,42.682c1.447-.835,2.632-.16,2.637,1.5a5.788,5.788,0,0,1-2.619,4.536c-1.447.835-2.632.16-2.637-1.5a5.786,5.786,0,0,1,2.619-4.538Z" transform="translate(-37.375 -42.323)" fill="#fff"/></g><g transform="translate(20.232 33.137)"><path d="M39.986,39.893c1.447-.835,2.632-.16,2.637,1.5A5.786,5.786,0,0,1,40,45.932c-1.447.835-2.632.16-2.637-1.5A5.783,5.783,0,0,1,39.986,39.893Z" transform="translate(-37.367 -39.535)" fill="#fff"/></g><g transform="translate(10.93 38.51)"><path d="M39.209,40.339c1.447-.835,2.6-.143,2.607,1.519a5.726,5.726,0,0,1-2.59,4.521c-1.447.835-2.632.16-2.637-1.5A5.788,5.788,0,0,1,39.209,40.339Z" transform="translate(-36.589 -39.984)" fill="#4c5671"/></g><g transform="translate(2.126 33.326)"><path d="M99.434,39.989c1.772-1.023,3.223-.2,3.229,1.84l.043,15.37A7.09,7.09,0,0,1,99.5,62.756L39.126,97.493c-1.772,1.023-3.223.2-3.229-1.84l-.044-15.37a7.09,7.09,0,0,1,3.208-5.557Zm-2.588,15.9-.017-6.039L71.672,64.377l.017,6.039ZM46.577,86.869a9.763,9.763,0,0,0,4.415-7.645c-.008-2.816-2.023-3.931-4.443-2.533a9.713,9.713,0,0,0-4.415,7.648c.008,2.814,1.993,3.945,4.443,2.53m10.111-7.791a5.786,5.786,0,0,0,2.619-4.536c0-1.664-1.19-2.339-2.637-1.5a5.787,5.787,0,0,0-2.619,4.538c0,1.662,1.19,2.337,2.637,1.5m-9.3,5.37a5.726,5.726,0,0,0,2.59-4.52c0-1.664-1.16-2.356-2.607-1.521a5.791,5.791,0,0,0-2.62,4.538c0,1.663,1.19,2.338,2.637,1.5" transform="translate(-35.852 -39.55)" fill="#7bb1ff"/></g><g transform="translate(8.313 36.545)"><path d="M40.784,40.422c2.422-1.4,4.436-.286,4.443,2.53A9.772,9.772,0,0,1,40.813,50.6c-2.45,1.415-4.436.284-4.443-2.533a9.711,9.711,0,0,1,4.415-7.645Z" transform="translate(-36.37 -39.82)" fill="#4c5671"/></g><g transform="translate(2.032)"><path d="M99.425,37.207c1.772-1.023,3.223-.231,3.229,1.805l.043,15.37a7.09,7.09,0,0,1-3.208,5.557L39.117,94.676c-1.772,1.023-3.223.2-3.229-1.84l-.043-15.37a7.026,7.026,0,0,1,3.208-5.521Zm-2.588,15.9-.017-6.039L71.663,61.6l.017,6.039ZM46.568,84.086a9.763,9.763,0,0,0,4.415-7.648c-.008-2.816-2.023-3.928-4.443-2.53a9.71,9.71,0,0,0-4.415,7.645c.008,2.817,1.993,3.947,4.443,2.533M56.679,76.3A5.787,5.787,0,0,0,59.3,71.758c0-1.662-1.19-2.337-2.637-1.5a5.791,5.791,0,0,0-2.62,4.536c.006,1.664,1.191,2.338,2.638,1.5m-9.3,5.37a5.727,5.727,0,0,0,2.59-4.521c0-1.662-1.16-2.354-2.607-1.519a5.786,5.786,0,0,0-2.619,4.536c0,1.663,1.189,2.338,2.636,1.5" transform="translate(-35.844 -36.761)" fill="#7bb1ff"/></g></g><path d="M101.366,37.263c2.953-1.7,5.352-.337,5.362,3.055l.043,15.37a11.745,11.745,0,0,1-5.327,9.262L41.071,99.687c-2.953,1.7-5.352.337-5.362-3.091l-.043-15.37A11.736,11.736,0,0,1,40.994,72Zm3.28,19.654-.043-15.37c-.006-2.036-1.458-2.863-3.229-1.84L41,74.444A7.09,7.09,0,0,0,37.793,80l.043,15.37c.006,2.069,1.458,2.863,3.229,1.84l60.373-34.737a7.039,7.039,0,0,0,3.208-5.557" transform="translate(-35.666 -36.529)" fill="#5793fb"/></g><g transform="translate(5.79 135.996)"><g transform="translate(0.001)"><path d="M94.237,78.54a8.227,8.227,0,0,1,3.723,6.448l-.05,17.836c-.007,2.363-1.691,3.323-3.747,2.135L32.519,69.369A8.228,8.228,0,0,1,28.8,62.921l.05-17.836c.007-2.363,1.691-3.323,3.747-2.135ZM41.174,67.033c2.845,1.642,5.147.33,5.157-2.9a11.267,11.267,0,0,0-5.123-8.873c-2.845-1.642-5.147-.33-5.157,2.939a11.267,11.267,0,0,0,5.123,8.835M78.668,86.272c1.679.969,3.054.225,3.06-1.7A6.717,6.717,0,0,0,78.688,79.3c-1.679-.969-3.054-.186-3.06,1.743a6.646,6.646,0,0,0,3.039,5.225M89.462,92.5c1.713.989,3.054.225,3.06-1.7a6.656,6.656,0,0,0-3.039-5.264c-1.679-.969-3.02-.166-3.025,1.762a6.567,6.567,0,0,0,3,5.205" transform="translate(-28.797 -42.44)" fill="#3a53d0"/></g><g transform="translate(0 0.021)"><path d="M96.295,102.809,34.651,67.22a8.228,8.228,0,0,1-3.723-6.448l.05-17.836a3.284,3.284,0,0,1,.1-.49c-1.3-.079-2.225.881-2.229,2.62L28.8,62.9a8.231,8.231,0,0,0,3.723,6.45l61.644,35.589c1.888,1.09,3.4.308,3.649-1.644a3.469,3.469,0,0,1-1.517-.489Z" transform="translate(-28.796 -42.442)" fill="#7bb1ff"/></g><g transform="translate(7.256 12.111)"><path d="M34.56,44.161a11.269,11.269,0,0,1,5.123,8.875c-.01,3.229-2.312,4.542-5.157,2.9A11.262,11.262,0,0,1,29.4,47.1c.01-3.27,2.313-4.583,5.157-2.94Z" transform="translate(-29.404 -43.454)" fill="#b4bed7"/></g><g transform="translate(46.833 36.448)"><path d="M35.776,45.907a6.714,6.714,0,0,1,3.039,5.264c-.006,1.93-1.381,2.674-3.06,1.7a6.646,6.646,0,0,1-3.039-5.226C32.722,45.719,34.1,44.938,35.776,45.907Z" transform="translate(-32.716 -45.491)" fill="#4c5671"/></g><g transform="translate(57.66 42.685)"><path d="M36.649,46.424a6.654,6.654,0,0,1,3.039,5.264c-.006,1.93-1.346,2.693-3.06,1.7a6.58,6.58,0,0,1-3.006-5.206c0-1.928,1.348-2.731,3.026-1.762Z" transform="translate(-33.622 -46.013)" fill="#fff"/></g></g><g transform="translate(5.79 100.605)"><g transform="translate(0.001)"><path d="M94.237,75.577a8.227,8.227,0,0,1,3.723,6.448l-.05,17.836c-.007,2.363-1.691,3.323-3.747,2.135L32.519,66.407A8.228,8.228,0,0,1,28.8,59.959l.05-17.836c.007-2.362,1.691-3.323,3.747-2.135ZM41.174,64.071c2.845,1.642,5.147.33,5.157-2.9A11.267,11.267,0,0,0,41.208,52.3c-2.845-1.642-5.147-.33-5.157,2.939a11.267,11.267,0,0,0,5.123,8.835M78.668,83.31c1.679.969,3.054.225,3.06-1.7a6.717,6.717,0,0,0-3.039-5.264c-1.679-.969-3.054-.186-3.06,1.743a6.646,6.646,0,0,0,3.039,5.225m10.794,6.232c1.713.989,3.054.225,3.06-1.7a6.656,6.656,0,0,0-3.039-5.264c-1.679-.969-3.02-.166-3.025,1.762a6.567,6.567,0,0,0,3,5.206" transform="translate(-28.797 -39.478)" fill="#3a53d0"/></g><g transform="translate(0 0.02)"><path d="M96.295,99.847,34.651,64.258a8.228,8.228,0,0,1-3.723-6.448l.05-17.836a3.286,3.286,0,0,1,.1-.49c-1.3-.079-2.225.881-2.229,2.62L28.8,59.94a8.231,8.231,0,0,0,3.723,6.45L94.163,101.98c1.888,1.09,3.4.309,3.649-1.644a3.453,3.453,0,0,1-1.517-.489Z" transform="translate(-28.796 -39.479)" fill="#7bb1ff"/></g><g transform="translate(7.256 12.111)"><path d="M34.56,41.2a11.269,11.269,0,0,1,5.123,8.873c-.01,3.229-2.312,4.542-5.157,2.9A11.262,11.262,0,0,1,29.4,44.138c.01-3.268,2.313-4.581,5.157-2.939Z" transform="translate(-29.404 -40.491)" fill="#b4bed7"/></g><g transform="translate(46.833 36.448)"><path d="M35.776,42.945a6.715,6.715,0,0,1,3.039,5.264c-.006,1.93-1.381,2.674-3.06,1.7a6.646,6.646,0,0,1-3.039-5.226C32.722,42.757,34.1,41.976,35.776,42.945Z" transform="translate(-32.716 -42.529)" fill="#4c5671"/></g><g transform="translate(57.66 42.684)"><path d="M36.649,43.463a6.654,6.654,0,0,1,3.039,5.264c-.006,1.93-1.346,2.693-3.06,1.7a6.58,6.58,0,0,1-3.006-5.206C33.627,43.3,34.97,42.493,36.649,43.463Z" transform="translate(-33.622 -43.05)" fill="#fff"/></g></g><g transform="translate(5.79 65.215)"><g transform="translate(0.001)"><path d="M94.237,72.615a8.227,8.227,0,0,1,3.723,6.448L97.91,96.9c-.007,2.363-1.691,3.323-3.747,2.135L32.519,63.444A8.228,8.228,0,0,1,28.8,57l.05-17.836c.007-2.362,1.691-3.323,3.747-2.135ZM41.174,61.109c2.845,1.642,5.147.33,5.157-2.9a11.267,11.267,0,0,0-5.123-8.873c-2.845-1.642-5.147-.33-5.157,2.939a11.267,11.267,0,0,0,5.123,8.835M78.668,80.348c1.679.969,3.054.225,3.06-1.7a6.717,6.717,0,0,0-3.039-5.264c-1.679-.969-3.054-.186-3.06,1.743a6.646,6.646,0,0,0,3.039,5.225m10.794,6.232c1.713.989,3.054.225,3.06-1.7a6.656,6.656,0,0,0-3.039-5.264c-1.679-.969-3.02-.166-3.025,1.762a6.567,6.567,0,0,0,3,5.206" transform="translate(-28.797 -36.516)" fill="#3a53d0"/></g><g transform="translate(0 0.02)"><path d="M96.295,96.885,34.651,61.3a8.228,8.228,0,0,1-3.723-6.448l.05-17.836a3.285,3.285,0,0,1,.1-.49c-1.3-.079-2.225.881-2.229,2.62L28.8,56.978a8.231,8.231,0,0,0,3.723,6.45L94.163,99.018c1.888,1.09,3.4.308,3.649-1.644a3.452,3.452,0,0,1-1.517-.489Z" transform="translate(-28.796 -36.517)" fill="#7bb1ff"/></g><g transform="translate(7.256 12.111)"><path d="M34.56,38.236a11.269,11.269,0,0,1,5.123,8.875c-.01,3.229-2.312,4.542-5.157,2.9A11.262,11.262,0,0,1,29.4,41.177c.01-3.269,2.313-4.582,5.157-2.94Z" transform="translate(-29.404 -37.529)" fill="#b4bed7"/></g><g transform="translate(46.833 36.448)"><path d="M35.776,39.982a6.715,6.715,0,0,1,3.039,5.264c-.006,1.93-1.381,2.674-3.06,1.7a6.646,6.646,0,0,1-3.039-5.226C32.722,39.795,34.1,39.013,35.776,39.982Z" transform="translate(-32.716 -39.566)" fill="#4c5671"/></g><g transform="translate(57.66 42.684)"><path d="M36.649,40.5a6.654,6.654,0,0,1,3.039,5.264c-.006,1.93-1.346,2.693-3.06,1.7a6.58,6.58,0,0,1-3.006-5.205c0-1.928,1.348-2.732,3.026-1.762Z" transform="translate(-33.622 -40.088)" fill="#fff"/></g></g></g></g><path d="M266.713,185.553,147.429,116.812l.368-98.335-7.857-4.544-.245,98.335L32.683,50.535A12.275,12.275,0,0,0,14.273,61.12l-.283,70.545a2.046,2.046,0,0,0,1.227,1.595,6.258,6.258,0,0,0,5.524,0,2.135,2.135,0,0,0,1.1-1.595l.206-65.5a7.366,7.366,0,0,1,11.043-6.36l106.6,61.422-.491,82.743c0,.612.369,1.1,1.105,1.595a6.527,6.527,0,0,0,5.648,0,1.963,1.963,0,0,0,1.1-1.595l.369-78.2,113.9,65.744a7.371,7.371,0,0,1,3.683,6.413l-.349,77.486a1.964,1.964,0,0,0,1.227,1.595,5.542,5.542,0,0,0,5.524,0,1.814,1.814,0,0,0,1.105-1.595l.337-79.177a12.273,12.273,0,0,0-6.146-10.687Z" transform="translate(60.395 140.591)" fill="#4c5671"/><g transform="translate(98.198)"><g transform="translate(11.687)"><path d="M259.866,227.147c0,12.607-4.515,21.554-11.67,25.726l-36.033,20.956c7.155-4.172,11.67-13.119,11.67-25.81.085-25.556-17.889-56.565-39.952-69.343a60.747,60.747,0,0,0-7.24-3.406c-4.09-24.533-21.211-51.024-41.827-62.953-7.24-4.172-14.141-6.048-20.189-5.79-6.73-30.5-28.2-62.271-53.5-76.926-15.589-9.03-29.73-9.8-39.952-3.919L57.208,4.81C67.431-1.151,81.572-.3,97.161,8.645c25.3,14.654,46.767,46.428,53.5,76.926,5.963-.258,12.947,1.618,20.189,5.79,20.615,11.925,37.737,38.5,41.827,63.037a39.084,39.084,0,0,1,7.155,3.406c22.148,12.778,40.122,43.787,40.037,69.343Z" transform="translate(29.172 -1)" fill="#7bb1ff"/><path d="M81.617,10.279a43.031,43.031,0,0,1,6.73,4.6L52.313,35.752a48.637,48.637,0,0,0-6.73-4.513c-11.16-6.477-21.3-7.072-28.622-2.9L53,7.471c7.325-4.259,17.462-3.664,28.621,2.808Z" transform="translate(-16.961 40.043)" fill="#7bb1ff"/></g><g transform="translate(0 20.914)"><path d="M117.988,10.45c25.29,14.6,46.719,46.379,53.5,76.895,5.993-.232,12.907,1.631,20.14,5.806,20.613,11.9,37.753,38.448,41.878,62.99a51.765,51.765,0,0,1,7.182,3.4c22.136,12.78,40.08,43.8,40.008,69.358-.073,25.5-18.134,35.729-40.27,22.949L56.045,145.4C33.8,132.552,15.91,101.565,15.983,76.067,16.056,50.5,34.062,40.245,56.307,53.088a52.5,52.5,0,0,1,6.742,4.578,86.206,86.206,0,0,1-1.374-15.19c.1-35.622,25.366-49.894,56.313-32.026Z" transform="translate(-15.983 -2.751)" fill="#3a53d0"/></g></g></g></g></svg>